#Comment line ignore any data following # character 
#Hierarchical Translation and Rotation (.htr) file 
[Header]	
#Header keywords are followed by a single value 
FileType HTR		#Single word string
DataType HTRS		#Translation followed by rotation and scale data
FileVersion 1		#integer
NumSegments 64		#integer
NumFrames 3		#integer
DataFrameRate 30		#integer, data frame rate in this file
EulerRotationOrder ZYX
CalibrationUnits mm
RotationUnits Degrees
GlobalAxisofGravity Y
BoneLengthAxis Y
ScaleFactor 1.00
[SegmentNames&Hierarchy]
#CHILD	PARENT
Pinger_Root GLOBAL
Pelvis Pinger_Root
L_Hip Pelvis
R_Hip Pelvis
Rear_Leg01 Pelvis
Spine1 Pelvis
L_Leg01 L_Hip
L_Leg02 L_Leg01
L_Leg03 L_Leg02
L_Foot L_Leg03
L_Toe1_01 L_Foot
L_Toe2_01 L_Foot
L_Toe3_01 L_Foot
planeAlignerLeft L_Foot
L_Toe1_02 L_Toe1_01
L_Toe1_03 L_Toe1_02
L_Toe2_02 L_Toe2_01
L_Toe2_03 L_Toe2_02
L_Toe3_02 L_Toe3_01
L_Toe3_03 L_Toe3_02
planeLockWeightLeft planeAlignerLeft
R_Leg01 R_Hip
R_Leg02 R_Leg01
R_Leg03 R_Leg02
R_Foot R_Leg03
planeAlignerRight R_Foot
R_Toe1_01 R_Foot
R_Toe2_01 R_Foot
R_Toe3_01 R_Foot
planeLockWeightRight planeAlignerRight
R_Toe1_02 R_Toe1_01
R_Toe1_03 R_Toe1_02
R_Toe2_02 R_Toe2_01
R_Toe2_03 R_Toe2_02
R_Toe3_02 R_Toe3_01
R_Toe3_03 R_Toe3_02
Rear_Leg02 Rear_Leg01
Rear_Leg03 Rear_Leg02
Rear_Leg04 Rear_Leg03
Rear_Foot Rear_Leg04
planeAlignerCenter Rear_Foot
Rear_Toe1_01 Rear_Foot
Rear_Toe2_01 Rear_Foot
Rear_Toe3_01 Rear_Foot
planeLockWeightCenter planeAlignerCenter
Rear_Toe1_02 Rear_Toe1_01
Rear_Toe1_03 Rear_Toe1_02
Rear_Toe2_02 Rear_Toe2_01
Rear_Toe2_03 Rear_Toe2_02
Rear_Toe3_02 Rear_Toe3_01
Rear_Toe3_03 Rear_Toe3_02
Back_Bone Spine1
Head Spine1
Motor_Bone Back_Bone
Ping_Mechanism Back_Bone
BN_LookIK Head
bottomMouth Head
L_Mouth01 Head
L_mouthFront Head
mouthGun Head
R_Mouth01 Head
R_mouthFront Head
TopMouth Head
weapon_bone Head
[BasePosition]
#SegmentName Tx, Ty, Tz, Rx, Ry, Rz, BoneLength
Pinger_Root 0.000000 0.000000 0.000000 -90.000000 0.000000 0.000000 10.000000 
Pelvis 0.000000 0.000000 0.000000 0.000000 0.000000 0.000000 10.000000 
L_Hip 0.000000 0.000000 0.000000 0.000000 0.000000 0.000000 10.000000 
R_Hip 0.000000 0.000000 0.000000 0.000000 0.000000 0.000000 10.000000 
Rear_Leg01 0.000000 0.000000 0.000000 0.000000 0.000000 0.000000 10.000000 
Spine1 0.000000 0.000000 0.000000 0.000000 0.000000 0.000000 10.000000 
L_Leg01 0.000000 0.000000 0.000000 0.000000 0.000000 0.000000 10.000000 
L_Leg02 0.000000 0.000000 0.000000 0.000000 0.000000 0.000000 10.000000 
L_Leg03 0.000000 0.000000 0.000000 0.000000 0.000000 0.000000 10.000000 
L_Foot 0.000000 0.000000 0.000000 0.000000 0.000000 0.000000 10.000000 
L_Toe1_01 0.000000 0.000000 0.000000 0.000000 0.000000 0.000000 10.000000 
L_Toe2_01 0.000000 0.000000 0.000000 0.000000 0.000000 0.000000 10.000000 
L_Toe3_01 0.000000 0.000000 0.000000 0.000000 0.000000 0.000000 10.000000 
planeAlignerLeft 0.000000 0.000000 0.000000 0.000000 0.000000 0.000000 10.000000 
L_Toe1_02 0.000000 0.000000 0.000000 0.000000 0.000000 0.000000 10.000000 
L_Toe1_03 0.000000 0.000000 0.000000 0.000000 0.000000 0.000000 10.000000 
L_Toe2_02 0.000000 0.000000 0.000000 0.000000 0.000000 0.000000 10.000000 
L_Toe2_03 0.000000 0.000000 0.000000 0.000000 0.000000 0.000000 10.000000 
L_Toe3_02 0.000000 0.000000 0.000000 0.000000 0.000000 0.000000 10.000000 
L_Toe3_03 0.000000 0.000000 0.000000 0.000000 0.000000 0.000000 10.000000 
planeLockWeightLeft 0.000000 0.000000 0.000000 0.000000 0.000000 0.000000 10.000000 
R_Leg01 0.000000 0.000000 0.000000 0.000000 0.000000 0.000000 10.000000 
R_Leg02 0.000000 0.000000 0.000000 0.000000 0.000000 0.000000 10.000000 
R_Leg03 0.000000 0.000000 0.000000 0.000000 0.000000 0.000000 10.000000 
R_Foot 0.000000 0.000000 0.000000 0.000000 0.000000 0.000000 10.000000 
planeAlignerRight 0.000000 0.000000 0.000000 0.000000 0.000000 0.000000 10.000000 
R_Toe1_01 0.000000 0.000000 0.000000 0.000000 0.000000 0.000000 10.000000 
R_Toe2_01 0.000000 0.000000 0.000000 0.000000 0.000000 0.000000 10.000000 
R_Toe3_01 0.000000 0.000000 0.000000 0.000000 0.000000 0.000000 10.000000 
planeLockWeightRight 0.000000 0.000000 0.000000 0.000000 0.000000 0.000000 10.000000 
R_Toe1_02 0.000000 0.000000 0.000000 0.000000 0.000000 0.000000 10.000000 
R_Toe1_03 0.000000 0.000000 0.000000 0.000000 0.000000 0.000000 10.000000 
R_Toe2_02 0.000000 0.000000 0.000000 0.000000 0.000000 0.000000 10.000000 
R_Toe2_03 0.000000 0.000000 0.000000 0.000000 0.000000 0.000000 10.000000 
R_Toe3_02 0.000000 0.000000 0.000000 0.000000 0.000000 0.000000 10.000000 
R_Toe3_03 0.000000 0.000000 0.000000 0.000000 0.000000 0.000000 10.000000 
Rear_Leg02 0.000000 0.000000 0.000000 0.000000 0.000000 0.000000 10.000000 
Rear_Leg03 0.000000 0.000000 0.000000 0.000000 0.000000 0.000000 10.000000 
Rear_Leg04 0.000000 0.000000 0.000000 0.000000 0.000000 0.000000 10.000000 
Rear_Foot 0.000000 0.000000 0.000000 0.000000 0.000000 0.000000 10.000000 
planeAlignerCenter 0.000000 0.000000 0.000000 0.000000 0.000000 0.000000 10.000000 
Rear_Toe1_01 0.000000 0.000000 0.000000 0.000000 0.000000 0.000000 10.000000 
Rear_Toe2_01 0.000000 0.000000 0.000000 0.000000 0.000000 0.000000 10.000000 
Rear_Toe3_01 0.000000 0.000000 0.000000 0.000000 0.000000 0.000000 10.000000 
planeLockWeightCenter 0.000000 0.000000 0.000000 0.000000 0.000000 0.000000 10.000000 
Rear_Toe1_02 0.000000 0.000000 0.000000 0.000000 0.000000 0.000000 10.000000 
Rear_Toe1_03 0.000000 0.000000 0.000000 0.000000 0.000000 0.000000 10.000000 
Rear_Toe2_02 0.000000 0.000000 0.000000 0.000000 0.000000 0.000000 10.000000 
Rear_Toe2_03 0.000000 0.000000 0.000000 0.000000 0.000000 0.000000 10.000000 
Rear_Toe3_02 0.000000 0.000000 0.000000 0.000000 0.000000 0.000000 10.000000 
Rear_Toe3_03 0.000000 0.000000 0.000000 0.000000 0.000000 0.000000 10.000000 
Back_Bone 0.000000 0.000000 0.000000 0.000000 0.000000 0.000000 10.000000 
Head 0.000000 0.000000 0.000000 0.000000 0.000000 0.000000 10.000000 
Motor_Bone 0.000000 0.000000 0.000000 0.000000 0.000000 0.000000 10.000000 
Ping_Mechanism 0.000000 0.000000 0.000000 0.000000 0.000000 0.000000 10.000000 
BN_LookIK 0.000000 0.000000 0.000000 0.000000 0.000000 0.000000 10.000000 
bottomMouth 0.000000 0.000000 0.000000 0.000000 0.000000 0.000000 10.000000 
L_Mouth01 0.000000 0.000000 0.000000 0.000000 0.000000 0.000000 10.000000 
L_mouthFront 0.000000 0.000000 0.000000 0.000000 0.000000 0.000000 10.000000 
mouthGun 0.000000 0.000000 0.000000 0.000000 0.000000 0.000000 10.000000 
R_Mouth01 0.000000 0.000000 0.000000 0.000000 0.000000 0.000000 10.000000 
R_mouthFront 0.000000 0.000000 0.000000 0.000000 0.000000 0.000000 10.000000 
TopMouth 0.000000 0.000000 0.000000 0.000000 0.000000 0.000000 10.000000 
weapon_bone 0.000000 0.000000 0.000000 0.000000 0.000000 0.000000 10.000000 
#Beginning of Data. Separated by tabs
#Fr	Tx	Ty	Tz	Rx	Ry	Rz	SF
[Pinger_Root]
22 -129.629364 0.000000 0.000000 -0.000075 -0.000000 -0.000020 129.629364
23 -259.258728 0.000000 0.000000 -0.000075 -0.000000 -0.000020 259.258728
24 -388.888580 0.000000 0.000000 -0.000075 -0.000000 -0.000020 388.888550
[Pelvis]
22 -849.289246 134.536224 5088.804199 -103.273270 -78.589111 139.084213 5160.941895
23 -856.695190 73.907486 5119.632324 -108.397697 -82.318985 144.358719 5191.341309
24 -860.931885 7.819079 5150.445801 -133.342484 -86.898705 169.524185 5221.911133
[L_Hip]
22 5.766392 125.831482 872.656799 -178.589432 -81.709145 87.734573 881.701050
23 5.766392 125.831482 872.656799 -178.253311 -81.787758 87.381340 881.701050
24 5.766392 125.831482 872.656799 -178.253311 -81.787758 87.381340 881.701050
[R_Hip]
22 5.765438 125.836372 -872.654907 -1.272551 81.734520 87.837959 881.699829
23 5.765438 125.836372 -872.654907 -1.746690 81.787712 87.381248 881.699829
24 5.765438 125.836372 -872.654907 -1.746690 81.787712 87.381248 881.699829
[Rear_Leg01]
22 -192.298416 -925.602966 -0.001907 178.068146 30.239475 -156.429153 945.367432
23 -192.298416 -925.602966 -0.001907 178.125183 27.130247 -156.455902 945.367432
24 -192.298416 -925.602966 -0.001907 177.693909 21.987633 -157.484222 945.367432
[Spine1]
22 290.604584 5.007505 0.000477 -20.598734 14.738281 16.214134 290.647736
23 290.604584 5.007505 0.000477 -20.412535 14.709767 20.416361 290.647736
24 290.604584 5.007505 0.000477 -20.230444 14.591850 25.828850 290.647736
[L_Leg01]
22 761.932007 -0.002384 -0.069261 61.866776 -0.810624 -72.328766 761.932068
23 761.932007 -0.002384 -0.069261 62.918858 0.158189 -73.658424 761.932068
24 761.932007 -0.002384 -0.069261 64.199333 1.767807 -75.109009 761.932068
[L_Leg02]
22 1441.140503 -0.000954 -0.000715 -1.463361 0.640235 -87.712822 1441.140503
23 1441.140503 -0.000954 -0.000715 -1.413990 0.690916 -89.568192 1441.140503
24 1441.140503 -0.000954 -0.000715 -1.366285 0.743170 -91.423561 1441.140503
[L_Leg03]
22 1686.963989 -0.000715 -0.000954 0.061390 -0.012675 94.064659 1686.963989
23 1686.963989 -0.000715 -0.000954 0.068642 -0.011441 91.586052 1686.963989
24 1686.963989 -0.000715 -0.000954 0.079474 -0.012864 88.379463 1686.963989
[L_Foot]
22 3041.570068 -30.715107 11.297464 -18.472605 16.039438 80.322205 3041.746094
23 3041.570068 -30.715107 11.297464 -16.699026 16.040594 83.014755 3041.746094
24 3041.570068 -30.715107 11.297464 -14.758502 16.094526 85.964577 3041.746094
[L_Toe1_01]
22 -188.216690 -224.732346 -21.137953 89.712097 -3.436440 -165.434937 293.899567
23 -188.216690 -224.732346 -21.137953 89.724831 -3.494527 -165.417328 293.899567
24 -188.216690 -224.732346 -21.137953 89.683563 -3.337766 -165.223068 293.899567
[L_Toe2_01]
22 200.746536 -219.926590 148.838394 -77.565842 -14.417819 -44.296852 332.896027
23 200.746536 -219.926590 148.838394 -77.546616 -14.365087 -44.410999 332.896027
24 200.746536 -219.926590 148.838394 -77.527504 -14.312325 -44.525112 332.896027
[L_Toe3_01]
22 188.832520 -219.859131 -191.078659 -105.055313 14.347095 -45.080677 347.140900
23 188.832520 -219.859131 -191.078659 -105.120827 14.479650 -45.202942 347.140900
24 188.832520 -219.859131 -191.078659 -105.186661 14.612070 -45.325428 347.140900
[planeAlignerLeft]
22 -5.443510 -607.899475 30.311882 0.000000 -90.000000 -90.001633 608.679077
23 -7.693892 -609.162720 28.399359 0.000000 -90.000000 -90.001633 609.872925
24 -9.944301 -610.426086 26.486820 0.000000 -90.000000 -90.001633 611.081360
[L_Toe1_02]
22 413.761139 0.000477 0.000000 0.001413 -22.335745 0.001413 413.761139
23 413.761139 0.000477 0.000000 0.001413 -22.373556 0.001413 413.761139
24 413.761139 0.000477 0.000000 0.001412 -22.411362 0.001412 413.761139
[L_Toe1_03]
22 464.317322 0.000358 -0.000089 0.016627 81.904610 0.016627 464.317322
23 464.317322 0.000358 -0.000089 0.015836 81.499870 0.015836 464.317322
24 464.317322 0.000358 -0.000089 0.015118 81.095085 0.015118 464.317322
[L_Toe2_02]
22 342.235809 -0.000477 0.000238 0.001181 -77.601677 0.001181 342.235809
23 342.235809 -0.000477 0.000238 0.001181 -77.462029 0.001181 342.235809
24 342.235809 -0.000477 0.000238 0.001181 -77.588875 0.001181 342.235809
[L_Toe2_03]
22 420.210846 -0.000715 0.000000 -179.996063 78.414101 -179.992554 420.210846
23 420.210846 -0.000715 0.000000 -179.996109 78.324768 -179.992584 420.210846
24 420.210846 -0.000715 0.000000 -179.996353 77.802673 -179.992828 420.210846
[L_Toe3_02]
22 329.270111 0.000954 0.000000 0.001177 -81.697380 0.001177 329.270111
23 329.270111 0.000954 0.000000 0.001177 -81.717026 0.001177 329.270111
24 329.270111 0.000954 0.000000 0.001177 -81.736618 0.001177 329.270111
[L_Toe3_03]
22 439.137451 -0.001907 0.000954 -179.997787 73.377525 -179.994263 439.137451
23 439.137451 -0.001907 0.000954 -179.997818 73.282013 -179.994278 439.137451
24 439.137451 -0.001907 0.000954 -179.997833 73.186462 -179.994293 439.137451
[planeLockWeightLeft]
22 999.999939 -0.000129 -0.000340 -0.011826 -0.004376 0.005620 999.999939
23 999.999878 -0.000141 -0.000370 -0.011826 -0.004376 0.005620 999.999878
24 999.999817 -0.000153 -0.000401 -0.011826 -0.004376 0.005620 999.999817
[R_Leg01]
22 761.455627 -0.001907 -0.000358 94.489525 -35.691460 68.162643 761.455688
23 761.455627 -0.001907 -0.000358 92.579208 -29.766932 68.134178 761.455688
24 761.455627 -0.001907 -0.000358 90.155800 -22.144978 68.182472 761.455688
[R_Leg02]
22 1441.140625 0.000000 -0.000238 0.181395 -0.034524 -98.459305 1441.140625
23 1441.140625 0.000000 -0.000238 0.186611 -0.025970 -94.837204 1441.140625
24 1441.140625 0.000000 -0.000238 0.195862 -0.008832 -90.300217 1441.140625
[R_Leg03]
22 1686.963989 0.000954 0.001431 -0.055466 0.013782 94.368103 1686.963989
23 1686.963989 0.000954 0.001431 -0.061452 0.014315 92.773041 1686.963989
24 1686.963989 0.000954 0.001431 -0.067449 0.014681 91.178276 1686.963989
[R_Foot]
22 3041.560059 -30.531288 -11.204481 22.893192 -22.351267 59.128178 3041.734131
23 3041.560059 -30.531288 -11.204481 24.568449 -22.510021 58.573025 3041.734131
24 3041.560059 -30.531288 -11.204481 26.247135 -22.653683 58.012436 3041.734131
[planeAlignerRight]
22 -1.891019 -712.845520 2.714457 0.000000 -89.960434 -90.004944 712.853210
23 -3.024593 -737.271606 5.371236 0.000000 -89.951546 -90.004936 737.297363
24 -5.973200 -762.864563 8.480524 0.000000 -89.951546 -90.004936 762.935181
[R_Toe1_01]
22 -188.383347 -224.864899 21.052242 90.807838 1.770073 -157.440506 294.101532
23 -188.383347 -224.864899 21.052242 90.890823 1.598192 -155.327301 294.101532
24 -188.383347 -224.864899 21.052242 90.967369 1.423429 -153.215210 294.101532
[R_Toe2_01]
22 200.637817 -220.002121 -148.787384 -103.515900 10.805330 -51.851212 332.857574
23 200.637817 -220.002121 -148.787384 -103.811577 10.262389 -53.598507 332.857574
24 200.637817 -220.002121 -148.787384 -104.089729 9.710984 -55.339558 332.857574
[R_Toe3_01]
22 188.606735 -220.092957 191.126343 -72.289261 -13.667573 -53.787998 347.192566
23 188.606735 -220.092957 191.126343 -71.803856 -13.288640 -55.650177 347.192566
24 188.606735 -220.092957 191.126343 -71.332062 -12.894591 -57.506073 347.192566
[planeLockWeightRight]
22 999.999817 0.000229 -0.000453 -0.011823 -0.004379 -0.000027 999.999817
23 999.999817 0.000267 -0.000460 -0.011823 -0.004379 -0.000027 999.999817
24 999.999817 0.000305 -0.000467 -0.011823 -0.004379 -0.000027 999.999817
[R_Toe1_02]
22 413.762085 0.000477 -0.000119 0.000006 -25.434675 -0.000005 413.762085
23 413.762085 0.000477 -0.000119 0.000006 -25.434675 -0.000005 413.762085
24 413.762085 0.000477 -0.000119 0.000006 -25.434675 -0.000005 413.762085
[R_Toe1_03]
22 464.317810 0.000000 0.001088 0.008681 74.460670 0.008681 464.317810
23 464.317810 0.000000 0.001088 0.007406 71.763916 0.007406 464.317810
24 464.317810 0.000000 0.001088 0.006325 68.614571 0.006325 464.317810
[R_Toe2_02]
22 342.234741 -0.000954 0.000238 -0.000580 -74.667030 -0.000580 342.234741
23 342.234741 -0.000954 0.000238 0.000302 -73.866158 0.000302 342.234741
24 342.234741 -0.000954 0.000238 0.001187 -73.065323 0.001187 342.234741
[R_Toe2_03]
22 420.210846 0.000715 -0.000268 -179.968140 87.811615 -179.971649 420.210846
23 420.210846 0.000715 -0.000268 0.000000 89.763443 -0.003501 420.210846
24 420.210846 0.000715 -0.000268 -0.023036 87.342369 -0.026533 420.210846
[R_Toe3_02]
22 329.270355 -0.000477 -0.000954 0.001180 -78.501755 0.001180 329.270355
23 329.270355 -0.000477 -0.000954 0.001180 -77.709785 0.001180 329.270355
24 329.270355 -0.000477 -0.000954 0.001181 -76.917862 0.001181 329.270355
[R_Toe3_03]
22 439.137939 0.000238 0.001431 -179.987656 85.324539 -179.984161 439.137939
23 439.137939 0.000238 0.001431 -179.971176 87.845688 -179.967667 439.137939
24 439.137939 0.000238 0.001431 0.000000 89.634155 0.003493 439.137939
[Rear_Leg02]
22 1162.777710 -0.029802 0.005960 25.385189 -18.616219 -99.425949 1162.777710
23 1162.777710 -0.029802 0.005960 27.526739 -13.585929 -107.506401 1162.777710
24 1162.777710 -0.029802 0.005960 28.633043 -7.197479 -118.274673 1162.777710
[Rear_Leg03]
22 607.192505 -0.013351 -0.073195 0.010076 -0.005884 76.922096 607.192505
23 607.192505 -0.013351 -0.073195 0.009981 -0.006047 78.768250 607.192505
24 607.192505 -0.013351 -0.073195 0.009881 -0.006206 80.614357 607.192505
[Rear_Leg04]
22 995.874512 -0.020504 -0.011921 -0.043022 -0.017715 89.397781 995.874573
23 995.874512 -0.020504 -0.011921 -0.044118 -0.014776 97.122528 995.874573
24 995.874512 -0.020504 -0.011921 -0.042213 -0.015099 106.455818 995.874573
[Rear_Foot]
22 3096.176270 -0.067472 -0.041425 -37.557785 40.950932 97.960022 3096.176270
23 3096.176270 -0.067472 -0.041425 -40.014366 43.433636 100.118195 3096.176270
24 3096.176270 -0.067472 -0.041425 -42.994926 46.904861 102.540955 3096.176270
[planeAlignerCenter]
22 0.833204 259.339478 -759.973572 0.001660 -0.001660 179.998337 803.005310
23 3.206156 268.850555 -758.219177 0.001660 -0.001660 179.998337 804.479492
24 5.579119 278.361664 -756.464783 0.001660 -0.001660 179.998337 806.074036
[Rear_Toe1_01]
22 0.653352 83.966492 -371.173737 0.101152 39.630199 90.043404 380.553192
23 0.653352 83.966492 -371.173737 0.099335 39.595501 90.045296 380.553192
24 0.653352 83.966492 -371.173737 0.097514 39.560806 90.047195 380.553192
[Rear_Toe2_01]
22 178.200760 -294.826019 -362.060547 77.422112 84.543251 6.783234 499.765686
23 178.200760 -294.826019 -362.060547 91.194626 84.110909 20.589806 499.765686
24 178.200760 -294.826019 -362.060547 104.674614 83.252792 34.083435 499.765686
[Rear_Toe3_01]
22 -153.359680 -308.780914 -362.060852 -77.521362 83.798569 170.917862 499.952881
23 -153.359680 -308.780914 -362.060852 -89.637627 83.324799 158.760590 499.952881
24 -153.359680 -308.780914 -362.060852 -101.672585 82.460632 146.715485 499.952881
[planeLockWeightCenter]
22 -0.000015 0.000294 0.000000 -0.011814 -0.004373 -0.000015 0.000294
23 -0.000008 0.000290 0.000000 -0.011814 -0.004373 -0.000015 0.000290
24 -0.000000 0.000286 0.000000 -0.011814 -0.004373 -0.000015 0.000286
[Rear_Toe1_02]
22 379.707825 0.194073 0.000477 -0.000767 -33.624729 0.000838 379.707855
23 379.707825 0.194073 0.000477 -0.000767 -33.624729 0.000838 379.707855
24 379.707825 0.194073 0.000477 -0.000767 -33.624729 0.000838 379.707855
[Rear_Toe1_03]
22 500.129700 0.165701 0.000119 -179.971542 87.533752 -179.975037 500.129761
23 500.129700 0.165701 0.000119 0.000000 89.523987 -0.003503 500.129761
24 500.129700 0.165701 0.000119 -0.017544 86.585854 -0.021042 500.129761
[Rear_Toe2_02]
22 340.494507 0.000238 -0.000954 179.998825 -87.163788 179.998825 340.494507
23 340.494507 0.000238 -0.000954 179.998825 -87.097137 179.998825 340.494507
24 340.494507 0.000238 -0.000954 179.998825 -87.030411 179.998825 340.494507
[Rear_Toe2_03]
22 433.103577 0.000000 0.000238 -179.996262 54.865452 -179.999924 433.103546
23 433.103577 0.000000 0.000238 -179.996292 54.320026 -179.999969 433.103546
24 433.103577 0.000000 0.000238 -179.996323 53.774620 -180.000000 433.103546
[Rear_Toe3_02]
22 340.494141 -0.000358 -0.000477 -179.994171 -87.170357 -179.994171 340.494171
23 340.494141 -0.000358 -0.000477 -179.994171 -87.124512 -179.994171 340.494171
24 340.494141 -0.000358 -0.000477 -179.994171 -87.078194 -179.994171 340.494171
[Rear_Toe3_03]
22 433.103577 0.001431 -0.000238 179.992416 55.144146 179.999741 433.103546
23 433.103577 0.001431 -0.000238 179.992462 54.620304 179.999817 433.103546
24 433.103577 0.001431 -0.000238 179.992523 54.096462 179.999878 433.103546
[Back_Bone]
22 1312.175781 -701.934692 0.000954 -3.076915 1.270129 -84.530739 1488.125488
23 1312.175781 -701.934692 0.000954 -3.241300 0.793389 -84.820435 1488.125488
24 1312.175781 -701.934692 0.000954 -3.327602 0.046320 -84.752220 1488.125488
[Head]
22 1406.159424 809.709290 0.001431 -10.472099 7.731956 1.565360 1622.625488
23 1406.159424 809.709290 0.001431 -10.908480 7.686985 1.145577 1622.625488
24 1406.159424 809.709290 0.001431 -11.344459 7.638847 0.726207 1622.625488
[Motor_Bone]
22 1158.364380 -417.834747 0.000477 -5.513650 1.191243 -104.796593 1231.419434
23 1158.364380 -417.834747 0.000477 -3.495553 0.584008 -105.401466 1231.419434
24 1158.364380 -417.834747 0.000477 0.251848 -0.541806 -106.527901 1231.419434
[Ping_Mechanism]
22 1257.396484 -451.913452 -34.674385 0.000103 -0.000053 82.120995 1336.590454
23 1241.114624 -445.522491 -26.147186 0.000103 -0.000053 82.120995 1318.916016
24 1220.819092 -435.507202 -14.019493 0.000103 -0.000053 82.120995 1296.249390
[BN_LookIK]
22 193.241119 1380.371704 -0.002861 0.000000 89.965736 -31.038179 1393.832153
23 193.241119 1380.371704 -0.002861 0.000000 89.965736 -31.038179 1393.832153
24 193.241119 1380.371704 -0.002861 0.000000 89.965736 -31.038179 1393.832153
[bottomMouth]
22 -435.092926 615.759399 -0.000954 -0.000022 0.000016 73.527184 753.966492
23 -435.092926 615.759399 -0.000954 -0.000022 0.000016 73.527184 753.966492
24 -435.092926 615.759399 -0.000954 -0.000022 0.000016 73.527184 753.966492
[L_Mouth01]
22 554.440979 7.658243 838.222046 150.204178 23.759130 109.605339 1005.027161
23 554.440979 7.658243 838.222046 150.204178 23.759130 109.605339 1005.027161
24 554.440979 7.658243 838.222046 150.204178 23.759130 109.605339 1005.027161
[L_mouthFront]
22 551.629089 934.514771 339.150421 0.000081 2.804060 79.119301 1136.941284
23 551.629089 934.514771 339.150421 0.000081 2.804060 79.119301 1136.941284
24 551.629089 934.514771 339.150421 0.000081 2.804060 79.119301 1136.941284
[mouthGun]
22 55.332661 1627.420898 0.000000 0.000023 0.000009 -11.038128 1628.361328
23 55.332661 1627.420898 0.000000 0.000023 0.000009 -11.038128 1628.361328
24 55.332661 1627.420898 0.000000 0.000023 0.000009 -11.038128 1628.361328
[R_Mouth01]
22 554.442383 7.659197 -838.223938 29.795891 -23.759109 109.605331 1005.029541
23 554.442383 7.659197 -838.223938 29.795891 -23.759109 109.605331 1005.029541
24 554.442383 7.659197 -838.223938 29.795891 -23.759109 109.605331 1005.029541
[R_mouthFront]
22 551.629089 934.514282 -339.151367 0.000029 -2.803930 79.119133 1136.941162
23 551.629089 934.514282 -339.151367 0.000029 -2.803930 79.119133 1136.941162
24 551.629089 934.514282 -339.151367 0.000029 -2.803930 79.119133 1136.941162
[TopMouth]
22 461.269867 -56.106091 -0.008583 -0.000059 -0.000268 92.025169 464.669525
23 461.269867 -56.106091 -0.008583 -0.000059 -0.000268 92.025169 464.669525
24 461.269867 -56.106091 -0.008583 -0.000059 -0.000268 92.025169 464.669525
[weapon_bone]
22 -987.239868 1448.372803 0.001431 0.000000 89.965736 -31.038221 1752.833740
23 -987.239868 1448.372803 0.001431 0.000000 89.965736 -31.038221 1752.833740
24 -987.239868 1448.372803 0.001431 0.000000 89.965736 -31.038221 1752.833740
